Coordinates
version=1
nRows=29
nColumns=18
inDegrees=yes

Units are S.I. units (second, meters, Newtons, ...)
If the header above contains a line with 'inDegrees', this indicates whether rotational values are in degrees (yes) or radians (no).

endheader
time	ground_thorax_rot_x	ground_thorax_rot_y	ground_thorax_rot_z	ground_thorax_tx	ground_thorax_ty	ground_thorax_tz	clav_prot	clav_elev	scapula_abduction	scapula_elevation	scapula_upward_rot	scapula_winging	plane_elv	shoulder_elv	axial_rot	elbow_flexion	pro_sup
      2.12000000	     -1.37353714	      1.46367448	     -8.15029177	     -0.00496317	      0.00565943	     -0.00792667	    -24.08740142	     -2.64247328	     -0.45566044	     -7.58078708	     35.30191911	     -0.23567076	     58.98006050	     63.92209112	    -29.71691583	      0.00000000	     34.32000000
      2.13000000	     -1.23491789	      1.48617831	     -8.26674323	     -0.00493649	      0.00548307	     -0.00790535	    -24.13278289	     -2.36067976	     -0.42727369	     -7.41351663	     35.53217410	     -0.39390255	     58.94967502	     64.54514622	    -29.65932383	      0.00000000	     34.32000000
      2.14000000	     -1.36950763	      1.49698807	     -8.11146651	     -0.00495111	      0.00552791	     -0.00788966	    -24.18804438	     -2.35157858	     -0.40150962	     -7.43511087	     35.69621554	     -0.42769966	     58.94367425	     64.72273854	    -29.64590145	      0.00000000	     34.32000000
      2.15000000	     -1.21544304	      1.42957964	     -8.27247245	     -0.00495665	      0.00537354	     -0.00778613	    -24.15022088	     -2.23285262	     -0.12055547	     -7.39501630	     36.01848217	     -0.53412629	     58.85649870	     65.37151976	    -29.30906796	      0.00000000	     34.32000000
      2.16000000	     -1.28848064	      1.10513959	     -8.21335313	     -0.00499159	      0.00539234	     -0.00775087	    -23.90085069	     -2.10671231	      0.50207767	     -7.33169640	     36.30856575	     -0.63689259	     58.73568010	     65.67646894	    -27.85545589	      0.00000000	     34.32000000
      2.17000000	     -1.37356114	      1.06549539	     -8.22597240	     -0.00500305	      0.00541764	     -0.00783922	    -23.99120747	     -2.00045964	      0.51315679	     -7.29748658	     36.56295970	     -0.72513234	     58.79458120	     66.10666520	    -27.79892618	      0.00000000	     34.32000000
      2.18000000	     -1.52303306	      1.01972622	     -8.08505937	     -0.00507626	      0.00557070	     -0.00797703	    -24.06616942	     -1.97281286	      0.50133990	     -7.30596070	     36.72724309	     -0.76552184	     58.77321518	     66.28673863	    -27.78323680	      0.00000000	     34.32000000
      2.19000000	     -1.41268047	      0.94805540	     -8.25770950	     -0.00497602	      0.00541096	     -0.00784853	    -24.17562804	     -1.85572073	      0.47335384	     -7.26391237	     36.97671053	     -0.85724267	     58.81842561	     66.82935326	    -27.69676750	      0.00000000	     34.32000000
      2.20000000	     -1.54834344	      0.89674262	     -8.10146451	     -0.00504344	      0.00549706	     -0.00781282	    -24.25301543	     -1.83710168	      0.45710079	     -7.27818082	     37.13731730	     -0.89350083	     58.77746146	     67.00078007	    -27.68058503	      0.00000000	     34.32000000
      2.21000000	     -1.46772093	      0.84944866	     -8.26124892	     -0.00506626	      0.00539219	     -0.00777370	    -24.33022122	     -1.68763970	      0.53429919	     -7.22078120	     37.46056608	     -1.01051748	     58.68248385	     67.68387330	    -27.55972192	      0.00000000	     34.32000000
      2.22000000	     -1.54553244	      0.71585254	     -8.28416181	     -0.00508934	      0.00536097	     -0.00773854	    -24.37943889	     -1.54711539	      0.65543523	     -7.16640623	     37.77437261	     -1.12136560	     58.73004925	     68.17847592	    -27.46134217	      0.00000000	     34.32000000
      2.23000000	     -1.75805284	      0.71435498	     -8.07784268	     -0.00530387	      0.00553440	     -0.00785891	    -24.45758217	     -1.52675638	      0.69767902	     -7.18973012	     38.01270429	     -1.17162140	     58.73177613	     68.42676707	    -27.44118015	      0.00000000	     34.32000000
      2.24000000	     -1.58838277	      0.57949003	     -8.28197549	     -0.00513510	      0.00548030	     -0.00777797	    -24.51782222	     -1.36046975	      0.91799207	     -7.13869425	     38.48726276	     -1.31921792	     58.76913919	     69.14770754	    -27.30506737	      0.00000000	     34.32000000
      2.25000000	     -1.67637686	      0.44309978	     -8.29018852	     -0.00504353	      0.00533017	     -0.00785247	    -24.51820593	     -1.12669407	      1.07878635	     -7.00833903	     38.76969495	     -1.45824750	     58.88413343	     69.56123030	    -27.13233278	      0.00000000	     34.32000000
      2.26000000	     -1.85049714	      0.43350430	     -8.13079629	     -0.00515574	      0.00547253	     -0.00806832	    -24.58453942	     -1.10712550	      1.10068103	     -7.02300991	     38.95341421	     -1.49808675	     58.87804316	     69.75622301	    -27.11290322	      0.00000000	     34.32000000
      2.27000000	     -1.80373350	      0.33999121	     -8.30036126	     -0.00507893	      0.00532698	     -0.00803712	    -24.66668439	     -0.97750675	      1.17465802	     -6.97733777	     39.27412784	     -1.60369281	     58.84387567	     70.31659747	    -26.96378505	      0.00000000	     34.32000000
      2.28000000	     -1.92470556	      0.29889398	     -8.24668375	     -0.00510234	      0.00528749	     -0.00803310	    -24.74607105	     -0.83446239	      1.18050704	     -6.90951791	     39.50454097	     -1.69904169	     58.73433169	     70.62929666	    -26.89050043	      0.00000000	     34.32000000
      2.29000000	     -1.84474690	      0.24662237	     -8.29571283	     -0.00504372	      0.00528741	     -0.00800096	    -24.82656100	     -0.61611321	      1.23101288	     -6.79825276	     39.81845371	     -1.83630045	     58.64202299	     71.16231865	    -26.73324539	      0.00000000	     34.32000000
      2.30000000	     -2.03232597	      0.21354418	     -8.13404894	     -0.00511729	      0.00544453	     -0.00824425	    -24.90639533	     -0.58541390	      1.23943449	     -6.80676171	     40.01733673	     -1.88301345	     58.62868758	     71.37648608	    -26.70972058	      0.00000000	     34.32000000
      2.31000000	     -2.00737650	      0.01809017	     -8.35810745	     -0.00490585	      0.00522938	     -0.00826090	    -25.01297476	     -0.44993450	      1.29876379	     -6.76145736	     40.37389569	     -1.99575234	     58.83868267	     71.98130029	    -26.51626713	      0.00000000	     34.32000000
      2.32000000	     -2.16711732	     -0.02226595	     -8.19281751	     -0.00508492	      0.00535627	     -0.00843890	    -25.08872108	     -0.43360445	      1.30076168	     -6.77665230	     40.55028302	     -2.03313377	     58.81882632	     72.16502669	    -26.49628808	      0.00000000	     34.32000000
      2.33000000	     -2.09929973	     -0.15496776	     -8.37465610	     -0.00498468	      0.00520210	     -0.00829596	    -25.17763552	     -0.31331914	      1.37016093	     -6.73627664	     40.87465483	     -2.13370504	     58.77855210	     72.71351986	    -26.32651724	      0.00000000	     34.32000000
      2.34000000	     -2.26556813	     -0.20251385	     -8.19954689	     -0.00507941	      0.00538177	     -0.00833843	    -25.25963682	     -0.29217287	      1.36705661	     -6.74898024	     41.05942281	     -2.17440269	     58.74052177	     72.90573957	    -26.30649447	      0.00000000	     34.32000000
      2.35000000	     -2.23553682	     -0.30959174	     -8.39342120	     -0.00504148	      0.00520697	     -0.00837011	    -25.33231400	     -0.08815611	      1.50767429	     -6.65650357	     41.46405450	     -2.31731698	     58.64604115	     73.50575202	    -26.14761307	      0.00000000	     34.32000000
      2.36000000	     -2.38437148	     -0.40288444	     -8.36112199	     -0.00507720	      0.00522358	     -0.00843219	    -25.39376712	      0.04964924	      1.56755267	     -6.59229316	     41.71968591	     -2.41099463	     58.59351281	     73.80157977	    -26.06947074	      0.00000000	     34.32000000
      2.37000000	     -2.22693502	     -0.67078753	     -8.38983746	     -0.00496110	      0.00509913	     -0.00821803	    -25.31573760	      0.45704925	      1.90815997	     -6.34199284	     42.10855036	     -2.61546123	     58.51181096	     74.19732949	    -25.69992668	      0.00000000	     34.32000000
      2.38000000	     -2.35935193	     -0.70628403	     -8.25526408	     -0.00493444	      0.00528894	     -0.00821554	    -25.38200610	      0.47800078	      1.89923582	     -6.34773513	     42.25012416	     -2.64746417	     58.46186983	     74.34502301	    -25.68136542	      0.00000000	     34.32000000
      2.39000000	     -2.28356510	     -0.92554107	     -8.34747632	     -0.00496386	      0.00507713	     -0.00824313	    -25.24256768	      0.82207075	      2.33990334	     -6.13494782	     42.60927294	     -2.81638430	     58.23267972	     74.75199136	    -24.23679250	      0.00000000	     34.32000000
      2.40000000	     -2.38092113	     -1.01242718	     -8.36495055	     -0.00499655	      0.00509321	     -0.00830991	    -25.35355068	      0.94107456	      2.36136302	     -6.09218136	     42.91835808	     -2.90999740	     58.20591990	     75.19121113	    -24.18984666	      0.00000000	     34.32000000
